<svg id="logo" xmlns="http://www.w3.org/2000/svg" xmlns:xlink="http://www.w3.org/1999/xlink" x="0px" y="0px"
	 viewBox="0 0 841.89 595.28" style="enable-background:new 0 0 841.89 595.28;" xml:space="preserve">
<style type="text/css">
	.st0{fill:#E1523C;}
	.st1{fill:#212222;}
</style>
<g>
	<path class="st0" d="M401.01,382.84c0,2.97-1.1,5.2-3.28,6.69c-2.19,1.48-5.47,2.05-9.83,1.7l-7.08-0.52
		c-13.99-1.05-24.3-5.24-30.94-12.59c-6.64-7.34-9.96-18.44-10.04-33.29v-65.01h-17.49c-2.97-0.8-5.29-1.54-6.95-3.03
		c-1.66-1.48-2.49-3.45-2.49-5.9c0-2.62,0.83-4.72,2.49-6.29c1.66-1.57,3.98-2.36,6.95-1.98h17.49v-30c0.07-3.32,1.03-5.9,2.96-7.73
		c1.92-1.83,4.54-2.75,7.86-2.75c3.14,0,5.68,0.92,7.6,2.75c1.92,1.83,2.88,4.42,2.46,7.73v30h29.52c2.79-0.37,5.02,0.41,6.68,1.98
		c1.66,1.57,2.49,3.67,2.49,6.29c0,2.45-0.83,4.42-2.49,5.9c-1.66,1.49-3.89,2.23-6.68,3.03h-29.52v66.05
		c0.42,9.61,2.39,16.56,6.32,20.84c3.93,4.28,9.83,6.69,17.7,7.21l7.08,0.52C397.96,374.98,401.01,377.77,401.01,382.84z"/>
	<path class="st1" d="M235.36,409.36c-6.52-4.56-9.78-12.81-9.78-24.75v-54.68c0-3.69-0.45-6.75-1.34-9.21
		c-0.9-2.46-3.13-4.78-6.7-6.98c-3.57-2.19-9.11-3.9-16.6-5.13c-3.04-0.53-5.32-1.71-6.83-3.55c-1.52-1.84-2.28-4.17-2.28-6.98
		c0-2.81,0.75-5.13,2.28-6.98c1.51-1.84,3.79-3.03,6.83-3.55c7.5-1.23,13.03-2.94,16.6-5.14c3.57-2.19,5.8-4.52,6.7-6.98
		c0.89-2.46,1.34-5.53,1.34-9.22v-55.55c0-11.93,3.26-20.18,9.78-24.75c6.51-4.56,15.75-6.85,27.72-6.85h3.21
		c2.5,0,4.69,0.92,6.56,2.76c1.87,1.84,2.81,4,2.81,6.45c0,2.46-0.94,4.61-2.81,6.45c-1.87,1.84-4.06,2.77-6.56,2.77h-4.02
		c-6.79,0-11.11,1.05-12.99,3.16c-1.87,2.11-2.81,4.74-2.81,7.9v57.58c0,14.92-8.03,25.27-24.1,31.07
		c16.07,5.79,24.1,16.15,24.1,31.07v58.45c0,3.16,0.94,5.79,2.81,7.9c1.88,2.11,6.2,3.16,12.99,3.16h4.02c2.5,0,4.69,0.92,6.56,2.76
		c1.87,1.84,2.81,3.99,2.81,6.45s-0.94,4.61-2.81,6.45c-1.87,1.84-4.06,2.76-6.56,2.76h-3.21
		C251.12,416.21,241.88,413.92,235.36,409.36z"/>
	<path class="st0" d="M517.59,271.85c7.65,8.44,11.48,21,11.48,37.71v71.25c0,3.27-0.95,5.8-2.84,7.61
		c-1.89,1.8-4.39,2.71-7.48,2.71c-3.27,0-5.85-0.9-7.73-2.71c-1.89-1.8-2.84-4.34-2.84-7.61v-70.62c0-11.35-2.31-19.73-6.94-25.14
		c-4.63-5.41-12.01-8.12-22.13-8.12c-11.7,0-21.04,3.58-28.03,10.74c-6.99,7.16-10.48,16.85-10.48,29.07v62.63
		c0,3.27-0.9,5.8-2.71,7.61c-1.81,1.81-4.34,2.71-7.61,2.71c-3.27,0-5.85-0.9-7.74-2.71c-1.9-1.8-2.84-4.34-2.84-7.61V215.34
		c0-2.92,0.99-5.33,2.96-7.22c1.98-1.89,4.52-2.84,7.61-2.84c3.26,0,5.8,0.9,7.61,2.71c1.8,1.81,2.71,4.26,2.71,7.35v67.34
		c4.18-7.65,10-13.48,17.49-17.48c7.48-4,16-6,25.57-6C498.62,259.2,509.93,263.42,517.59,271.85z"/>
	<path class="st1" d="M569.05,413.44c-1.87-1.84-2.81-3.99-2.81-6.45s0.94-4.61,2.81-6.45c1.87-1.84,4.06-2.76,6.56-2.76h4.02
		c6.78,0,11.11-1.05,12.98-3.16c1.87-2.11,2.81-4.74,2.81-7.9v-57.58c0-14.92,8.03-25.28,24.1-31.07
		c-16.07-5.79-24.1-16.15-24.1-31.07v-58.45c0-3.16-0.94-5.79-2.81-7.9c-1.87-2.11-6.2-3.16-12.98-3.16h-4.02
		c-2.5,0-4.68-0.92-6.56-2.77c-1.87-1.84-2.81-3.99-2.81-6.45c0-2.46,0.94-4.61,2.81-6.45c1.87-1.84,4.06-2.76,6.56-2.76h3.21
		c11.96,0,21.19,2.28,27.71,6.85c6.52,4.57,9.77,12.81,9.77,24.75v54.68c0,3.69,0.44,6.76,1.34,9.22c0.89,2.46,3.12,4.78,6.69,6.98
		c3.57,2.2,9.1,3.91,16.6,5.14c3.03,0.52,5.31,1.71,6.83,3.55c1.51,1.84,2.27,4.17,2.27,6.98c0,2.81-0.76,5.13-2.27,6.98
		c-1.52,1.84-3.8,3.03-6.83,3.55c-7.5,1.23-13.03,2.94-16.6,5.13c-3.57,2.2-5.8,4.52-6.69,6.98c-0.9,2.46-1.34,5.53-1.34,9.21v55.55
		c0,11.93-3.26,20.18-9.77,24.75c-6.52,4.56-15.75,6.85-27.71,6.85h-3.21C573.11,416.21,570.93,415.28,569.05,413.44z"/>
</g>
</svg>
